# xmcd CD database file
#
# Track frame offsets:
#	150
#	16166
#	29633
#	42992
#	56955
#	69288
#	82214
#	94420
#	108420
#	124901
#
# Disc length: 1848 seconds
#
# Revision: 0
# Processed by: cddbd v1.5.2PL0 Copyright (c) Steve Scherf et al.
# Submitted via: CDex 1.70beta2
#
DISCID=8d07360a
DTITLE=Paul Brunelle - Un Million de Larrmes
DYEAR=1900
DGENRE=Country
TTITLE0=Un Million de Larrmes
TTITLE1=Mon Dieu
TTITLE2=Souvenir D'une Mère
TTITLE3=Ce Jour Là
TTITLE4=Je Retourne Dans Mon Village
TTITLE5=Je Suis Tout Seul
TTITLE6=La Valse De L'Ile De Montréal
TTITLE7=Mon Rêve D'Enfance
TTITLE8=La Complainte D'Un Papa
TTITLE9=Tu Es Mon Soleil
EXTD=
EXTT0=
EXTT1=
EXTT2=
EXTT3=
EXTT4=
EXTT5=
EXTT6=
EXTT7=
EXTT8=
EXTT9=
PLAYORDER=
